<mxfile host="app.diagrams.net" modified="2024-06-09T08:02:09.536Z" agent="Mozilla/5.0 (X11; Linux x86_64) AppleWebKit/537.36 (KHTML, like Gecko) Chrome/122.0.0.0 Safari/537.36" version="24.5.2" etag="MdwX29zWK48ok9dRYwi9" type="github">
  <diagram name="Page-1" id="GKVnBfuuSTu01Am40WvL">
    <mxGraphModel>
      <root>
        <mxCell id="0" />
        <mxCell id="1" parent="0" />
      </root>
    </mxGraphModel>
  </diagram>
</mxfile>
